# xmcd
#
# Track frame offsets:
#	150
#	10890
#	20617
#	31804
#	42382
#	54380
#	62546
#	71645
#	84286
#	96805
#
# Disc length: 1433 seconds
#
# Revision: 1
# Processed by: cddbd v1.5.2PL0 Copyright (c) Steve Scherf et al.
# Submitted via: audiograbber 1.83.01
#
DISCID=7505970a
DTITLE=Porter Wagoner - Green, Green Grass Of Home
DYEAR=1968
DGENRE=Country
TTITLE0=Green, Green Grass Of Home
TTITLE1=Ole Slew Foot
TTITLE2=Eat, Drink And Be Merry (Tomorrow You'll Cry)
TTITLE3=Stranger's Story
TTITLE4=False True Lover
TTITLE5=You Can't Make A Heel Toe The Mark
TTITLE6=The Man In The Little White Suite
TTITLE7=The Keeper Of The Key
TTITLE8=They Listened While You Said Goodbye
TTITLE9=I Dreamed I Saw America On Her Knees
EXTD=
EXTT0=
EXTT1=
EXTT2=
EXTT3=
EXTT4=
EXTT5=
EXTT6=
EXTT7=
EXTT8=
EXTT9=
PLAYORDER=
